<svg version="1" xmlns="http://www.w3.org/2000/svg" width="533.333" height="533.333" viewBox="0 0 400.000000 400.000000"><path d="M197.6 2.1c-7.2 5.6-4.8 21 3.2 20.9 3.9-.1 6-2.1 7.4-7.3 1.1-4.1 1-5.2-.8-9.3-2.3-5.8-5.9-7.4-9.8-4.3zM177.2 13.1c-6.4 2.5-4.2 11.5 4 15.7 10.4 5.3 17.7-2.2 10.6-10.9-3.3-4-10.4-6.4-14.6-4.8zM217.5 13.3c-4 1.3-7.5 4.5-9.2 8.5-1.8 4.3-1 6.7 2.8 8.2 8.5 3.6 22.2-9.2 16.3-15.1-2.4-2.3-6.1-2.9-9.9-1.6z"/><path d="M179.9 34c-4.4 2.3-6.9 5.9-6.9 9.8 0 6.1 9.6 8.3 16.2 3.8l3.5-2.3-.1 5.3c-.1 7.5 2.5 10.9 8.4 10.9 6 0 8.6-3.4 8.3-11.2l-.2-5.6 2.4 2.3c3.6 3.4 12.2 4 15.3 1 3.4-3.2 2.9-7.6-1.3-11.6-7.2-6.7-18.5-5-18.5 2.9 0 2.4-.3 2.7-1.4 1.8-1.6-1.4-5.4-1.7-8.3-.7-2 .6-2.3.4-2.3-1.8 0-3.2-4.3-6.6-8.4-6.6-1.7.1-4.7.9-6.7 2zM132.9 39.1c-2.7 10.5-10.1 14.8-18.4 10.8-2.1-1-4.1-1.7-4.4-1.4-.4.2-.8 2-.9 4.1-.7 9.8-7.4 13.8-18.4 10.8-2.9-.7-5.4-1.4-5.5-1.4-1.3-.1 5.3 10 11.2 16.9 9.1 10.8 20.4 16.7 33 17.4l4.9.3 4.8 7.9c2.6 4.3 4.8 8.2 4.8 8.7s-1 .6-2.2.2c-3.5-1.1-7-1.2-10.1-.1-2.9 1-11.7 9-11.7 10.7 0 2.4 7.8 7.4 13.2 8.4 4.2.7 9.6-1.2 13.8-5l3.9-3.5 6.8 11.5c4.5 7.7 7.4 11.6 8.6 11.6 2.3 0 2.1-1.7-.9-7-1.4-2.5-4.3-7.7-6.5-11.6l-3.9-7.2 4.4-1.1c8.7-2.2 13.5-9 12.9-18.5-.4-6.9-1.3-7.7-7.2-6.1-8.9 2.3-12.9 6.2-15.3 14.4-.2.8-2.7-2.6-5.4-7.5l-5-8.9 1.9-3.3c5.6-9.6 6.7-23.7 2.7-35.8-2.9-8.6-7.5-19-8.8-19.8-.6-.3-1.6 1.6-2.3 4.5zM262.5 40c-1.4 2.2-2.5 4.4-2.5 5 0 .6-.4 1.8-.9 2.8-2.3 4-5.2 14.7-5.5 20.2-.5 7.2 1.6 18 4.4 22.7 1.1 1.9 2 3.9 2 4.4 0 .6-2.1 4.9-4.7 9.5l-4.7 8.4-1.7-4.6c-1-2.5-2.3-5.1-2.9-5.9-2.7-3.2-14.5-7-17.1-5.5-1.9 1.2-1.4 12 .8 16.5 1.8 4 7.5 8 12.4 8.9 1.3.2 2.3.8 2.2 1.2-.1.5-3.1 6.2-6.6 12.6-5 9.1-6.1 11.8-5 12.2 2.1.9 2.6.4 7.3-7.6 2.4-4 5.4-9 6.7-11.1l2.4-3.8 3.6 3.1c4 3.6 6.9 4.8 11.6 5.2 3.7.2 11.5-3.2 14.2-6.2 1.8-2 1.8-2.1-.2-4.8-1.1-1.5-3.8-4.1-6-5.8-3.3-2.5-4.9-3.1-8.4-2.9-2.4.1-5.4.5-6.6.9-2.1.7-2 .3 1.2-5.1 1.8-3.2 4.1-7.3 5.1-9.1 1.4-2.8 2.2-3.2 5.8-3.3 16.3-.4 27.5-7.6 41.9-27.1 3.2-4.3 3.6-7.4 1-6.3-1 .4-4.2.9-7.2 1.2-9 1-14.9-4-14.3-11.9.4-4.4-.5-4.9-4.3-2.6-4.2 2.4-9.4 2.6-12.8.3-2.9-1.9-7.1-9.7-7.1-13.2 0-3.3-1.2-2.8-4.1 1.7zM194 79.2c-3.6 6.2-6.6 11.6-6.8 12-.2.4 2.6.8 6.1 1l6.5.3-6.4 11-6.3 11 6.5.5 6.4.5-6.1 10.5c-3.4 5.8-6.3 11-6.6 11.7-.4.9 2.9 1.2 12.7 1.2 7.3.1 13.6-.2 14.1-.5.8-.5-.3-2.8-8-15.9l-4-7 6.4-.5 6.4-.5-6.3-11-6.4-11 6.5-.3c3.5-.2 6.3-.6 6.1-1.1-1-2.5-13.3-23.1-13.8-23.1-.3 0-3.5 5.1-7 11.2zM47.2 83.7c-2.1.8-4.2 6-4.2 10.5 0 8.8 6.6 14.4 11.5 9.8 7.6-7.1 1.6-23.9-7.3-20.3zM345.1 87.5c-2.5 3.3-3.4 7.4-2.6 12.1.6 4.3 2 6.3 5.2 7.5 3.1 1.2 4.9.3 7.3-3.6 6.2-10.1-2.9-24.9-9.9-16zM64.4 96.4c-3.1 1.8-6.3 5.5-7 8.1-.9 3.6.3 7.3 2.6 8 2 .6 2.8 2.5 1 2.5-1.2 0-4 4.2-4.5 6.7-.2 1-.4 1.9-.4 2-.1.1-1.5-.2-3.2-.7-8-2.3-13.6 9.7-8.7 18.8 2.4 4.5 9 3.9 12.3-1.2 1.9-2.9 2.6-8.2 1.4-11.4-1-2.5.3-2.9 2.2-.6 3.8 4.6 12.5 5.9 15.9 2.2 3.3-3.5 2.6-7.5-2-12-2.3-2.1-4.7-3.8-5.5-3.8-2.6 0-1.6-1.6 2-3.3 6.3-3 9.2-11 5.3-14.9-2.1-2.1-7.9-2.3-11.4-.4zM24.7 97.8c-3.3 3.7-.9 9.6 5.3 13.1 6.4 3.6 14 1.8 14-3.2 0-8.2-14.3-15.4-19.3-9.9zM327.2 96.8c-1.2.2-3 1.4-3.8 2.7-3 4.6.5 11.3 7.8 14.8l3.2 1.5-3.5 1.6c-8.7 3.9-11.4 10.2-6.4 15.2 2.1 2.1 3.3 2.5 6.5 2.1 2.2-.2 5.5-1.6 7.3-3l3.4-2.6.1 5.3c0 6.5 1.3 9.1 5.4 11.2 4 2.1 7.4.7 9.4-4.1 1.8-4.4 1.8-6.5-.2-11.4-1.9-4.8-6.1-7-10-5.2-1.4.6-2.6 1.1-2.7 1.1-.2 0-.4-1.2-.5-2.8-.1-1.5-1.4-3.7-2.9-5.1-1.8-1.6-2.4-2.6-1.5-2.9 4.5-1.5 5.5-7.5 2.1-12.3-3-4.3-8.8-6.9-13.7-6.1zM365.5 98.5c-4.7 1.7-9.5 6.6-9.5 9.8 0 10.2 18.6 6.7 20.5-3.8 1-5.7-4-8.4-11-6z"/><path d="M30.1 117.2c-6.3 3.1-9.3 9.2-6.3 12.7 4.7 5.5 16.9 1.2 20-7 2.4-6.1-6-9.5-13.7-5.7zM358.2 118.6c-6.4 4.4 2.1 15.4 11.9 15.4 1.9 0 4.2-.8 5.5-2.1 1.8-1.7 2.1-2.6 1.3-5.1-1.1-4-3.6-6.6-7.8-8.4-4.4-1.8-8.1-1.8-10.9.2zM83.9 135.9c1.8 3.5 11 19.2 11.6 20 .2.1 1.8-2.2 3.6-5.3 1.7-3.2 3.3-5.6 3.4-5.4.4.4 10.3 17.5 12 20.6 1.2 2.3 1.4 2.2 4.5-3.2 1.7-3.1 3.3-5.6 3.5-5.6.2 0 3.2 4.9 6.7 11 3.5 6 6.5 11 6.9 11 .5 0 8.9-14.1 9.8-16.5.2-.5 1.2-2.2 2.3-3.7 1-1.5 1.5-2.8 1.1-3.1-.5-.2-6.3-.3-13-.3-6.8.1-12.3-.3-12.3-.8s1.3-3.1 3-5.7l3-4.9-2.8-.1c-1.5 0-7.5-.1-13.4-.1h-10.7l3-5.2c1.6-2.9 2.9-5.5 2.9-5.8 0-.2-6.1-.5-13.5-.5H82.1l1.8 3.6zM293.8 133.8c-1.6.2-2.8.5-2.8.8 0 .2 1.3 2.8 3 5.7l3 5.3-13-.1c-7.2-.1-13 .2-13 .5 0 .4 1.3 3.1 2.9 6.1l3 5.4-13.5-.2-13.4-.1 3.2 5.6c11.9 20.9 10.1 19.7 15.4 10.7 1.5-2.8 3.7-6.4 4.7-8 .9-1.7 2-3.8 2.3-4.8 1-2.7 2.1-2 5.1 3.3 1.5 2.7 3.1 5 3.4 5 .3 0 3.1-4.4 6.2-9.8 3.1-5.3 6.1-10.3 6.6-11.1.7-1.1 1.7 0 4.1 4.3l3.3 5.8 4-6.9c5.9-10.1 9.8-17.3 9.5-17.4-1.2-.2-21.9-.3-24-.1zM24.7 169.8c-1.4.3-1.1 1.1 2.3 4.9 5.4 6.2 7 11.4 4.7 15.6-1 1.8-3.3 4.3-5.2 5.6-1.9 1.3-3.5 2.6-3.5 3 .1.3 1.5 1.5 3.2 2.6 8.1 5.1 8.4 12.4 1.1 20.5-4.2 4.7-4.4 5-2.1 5.2 9.2.6 24.5-2.4 32.6-6.4 6.7-3.4 14.5-10.6 17.3-15.9l1.7-3.3 10.1-.3c5.5-.1 10.1 0 10.1.3 0 .2-1.3 1.8-2.9 3.4-4.2 4.4-4.9 11.4-2 19.5 1.2 3.3 1.6 3.6 4.4 3.1 4.3-.9 10.5-5.5 12.7-9.6 1.9-3.5 2.1-11.1.3-15.3-.8-1.8-.8-1.8 22.3-1.9 4.4-.1 5.2-.3 5.2-1.9 0-2.2.9-2.1-14.8-2.3-6.7-.1-12.2-.7-12.2-1.2s.2-2.8.6-5.1c1.3-8.5-2-14.9-9.5-18.7-6-3.1-7-3-8.5.6-3.5 8.4-2.9 15.3 1.9 20.4l3.2 3.4-10.1-.1-10.2-.1-2.8-4.4c-5.5-8.6-17.3-16.7-27.6-18.8-9.1-1.9-20-3.3-22.3-2.8zM300.5 172.4c-4.9 2.1-9.3 6.4-10.5 10.3-1.2 3.5-.9 10 .5 13.5.6 1.6-.1 1.8-7.6 1.9-4.6.1-11 .1-14.1.1-5.1-.1-5.8.1-5.8 1.9 0 2.3-1.4 2 14.3 2.4 7.1.2 13 .5 13.3.8.2.2 0 1.6-.6 3.1-3.3 8.9.9 17.5 10.7 21.8 5.1 2.3 6.6 1.6 7.8-3.5 2.1-9 1.3-13.7-3-18.2l-3.2-3.5 10.3.1h10.3l2.5 4.4c3 5 10.4 11.8 16 14.7 6.9 3.5 18.8 6.4 28.6 6.8 7.5.4 7.6.3 3.2-4.4-2.2-2.4-4.6-6.3-5.3-8.6-1.1-3.6-1-4.6.4-7.3 1-1.8 3.3-4.3 5.2-5.6 4-2.7 4.3-3.7 1.6-4.6-1.1-.3-3.4-2.2-5.1-4.2-2.7-3.1-3.1-4.1-2.6-7.6.6-4.3 1.2-5.3 6.4-10.8 2.7-3 3.1-3.7 1.8-4.2-2.9-1.1-24 2.3-30.3 4.9-4.3 1.8-13.2 7.9-14.9 10.3-.7.9-2.1 2.7-3.3 4-1.1 1.3-2.3 3.2-2.6 4.2-.7 2.2 0 2-12.2 2.4-8.4.2-11.7-.6-7.8-2.1.8-.3 2.4-2.6 3.6-5 2.3-4.8 2.2-9.1-.3-16.2-1.3-3.5-2.7-3.8-7.3-1.8zM135.3 219.2c-.5.7-3.4 5.5-6.3 10.6s-5.6 9.5-6.1 9.7c-.4.3-2-1.7-3.6-4.5-1.5-2.7-3-5-3.3-5-.3 0-3.4 4.9-6.9 11-3.5 6-6.5 11-6.7 11-.2 0-1.8-2.5-3.5-5.6l-3.2-5.5-5.4 9.3c-8.9 15.1-8.8 14.8-6.1 14.9 6.5.1 24.3-.3 24.6-.6.2-.2-.8-2.3-2.2-4.8-1.4-2.4-2.6-4.8-2.6-5.4 0-.6 4.7-.9 12.5-.8 6.9 0 12.5-.3 12.5-.7 0-.5-1.3-3.2-3-6.1l-2.9-5.2 13.4.1 13.3.1-2.8-5.1c-7.9-14.5-10.7-18.7-11.7-17.4zM256.8 231.4c-4 6.9-6.2 11.6-5.5 11.8.7.2 6.5.3 13 .3 6.4 0 11.7.3 11.7.7 0 .4-1.3 3-3 5.8-3.4 5.8-5.1 5.2 12.8 5.2h11.3l-3.1 5.2c-1.6 3-3 5.6-3 5.8 0 .3 6.1.5 13.5.5h13.4l-1.8-3.6c-1.8-3.5-11-19.2-11.6-20-.2-.1-1.8 2.2-3.5 5.3-3 5.2-3.3 5.5-4.6 3.9-.7-1-1.4-2.4-1.4-3.1 0-.6-.4-1.2-1-1.2-.5 0-1-.4-1-.9 0-1.4-8.1-15.1-8.9-15.1-.4 0-2 2.3-3.6 5.2-3.3 6-2.7 6.5-10.8-7.9-2.9-5.1-5.4-9.3-5.7-9.3-.3 0-3.5 5.1-7.2 11.4zM160.7 256.8c-2.1 3.7-5.1 8.9-6.8 11.6l-3 4.8-2.7-2.5c-6.4-5.8-12.1-7.3-18.7-4.7-3.7 1.4-9.5 5.8-9.5 7.1 0 .5 1.8 2.9 4 5.3 4.3 4.7 10.9 7.3 15.1 6.1 6.2-1.8 5.9-1.8 4.6.7-.7 1.3-3 5.3-5.2 9-3.8 6.7-4 6.8-8.2 6.9-6.4.2-7.4.4-11.8 1.8-5.3 1.8-12.1 5.7-16.3 9.5-4.9 4.4-16.2 19.1-16.2 21 0 1.7 2.5 2.2 3.4.8.9-1.5 11.4-1.4 14.4.2 3.4 1.7 5.4 5.9 5.4 11 0 4 .9 4.3 5.2 2.1 1.5-.8 4.6-1.5 6.8-1.5 3.2 0 4.6.6 6.8 3 2.5 2.7 4.8 7.6 5.4 11.3.7 5.2 5.1-1.5 9.8-15.1 4.7-13.4 4.4-25.4-.8-35.9l-2.7-5.6 3.3-6.1c1.9-3.4 4.1-7.4 5.1-8.9l1.7-2.9.6 2.9c1.7 7.4 8.3 12.6 17 13.4 3.2.3 4 .1 4.3-1.6.9-4.4.4-11.3-1-14.7-1.6-3.8-8.1-8.8-11.4-8.8-4.4-.1-4.2-1.5 1.8-12 6.3-11 7.4-14.2 4.9-14.7-1-.2-2.9 2.2-5.3 6.5zM233 252c-1.6 1-1 2.4 7.4 17.6l4.6 8.2-4.4 1.1c-8.7 2.2-13.1 8.5-12.8 18.6.1 6.5 1.7 7.8 7.8 5.9 8.5-2.5 12.3-6.3 14.6-14.3.2-.8 2.7 2.6 5.4 7.5l5.1 8.8-1.8 3.1c-5 8.4-6.6 19.4-4.4 29.7 1.6 7.7 7 21.9 9.4 24.9l1.8 2.3 1.3-5.1c.7-2.8 2.8-6.8 4.5-8.9 2.7-3.2 3.8-3.8 7.1-3.8 2.2 0 5.5.8 7.3 1.7 4.1 2.1 4.9 1.6 4.9-2.7 0-4 2.5-9.2 5.2-10.6 3.1-1.7 9.1-1.8 14-.4 2.5.8 4.6 1.4 4.7 1.4 1.9.1-9.3-15.3-15.8-21.7-7.1-7.1-18.4-12.2-27.9-12.6l-5.2-.2-5.1-8.3c-2.8-4.5-4.8-8.4-4.6-8.7.3-.2 2.2 0 4.2.5 5.6 1.2 10-.5 15.7-6.1l5-5-2.9-2.5c-8.9-7.4-17.9-7.7-25.2-.7l-3.6 3.4-4.2-6.6c-2.2-3.6-4.1-6.8-4.1-7.1 0-.3-1.5-2.7-3.3-5.4-2.5-3.6-3.7-4.6-4.7-4zM45.6 253.9c-2.2 2.4-3.8 8.3-3.2 11.6 1.2 6.5 6.6 10.7 11.1 8.7 3.2-1.5 3.2-1.5 3.2.2 0 2.6 2.5 7.6 3.9 7.6 2.1 0 1.7 1.8-.6 2.5-2.8.9-3.6 6.4-1.6 10.4 1.9 3.6 5.2 6 10 7.1 11.1 2.5 12.5-11.1 1.7-16.6l-4.3-2.1 4.6-2.3c7.5-3.6 9.7-10 5-14.7-2.1-2.1-3.2-2.5-6.5-2-2.2.3-5.5 1.7-7.4 3.1-4.1 3.2-4.7 3.2-3.7.3 1.9-5.2-.4-11.9-5-14.3-3.6-1.9-5.2-1.8-7.2.5zM344.9 256.9c-1.6 1.6-2.9 3.5-3 4.3 0 .7-.2 2.1-.4 3.1s0 3.1.5 4.8c1 3.2.2 3.2-3.7-.4-1.3-1.2-4.2-2.2-7.1-2.5-4.2-.4-5.2-.1-7.1 1.9-1.1 1.2-2.1 3.5-2.1 5 0 3.4 3.9 8.2 8 9.9 3.8 1.6 3.8 2.3-.2 4.1-9.5 4.1-9.9 16.9-.6 16.9 6.6 0 13.8-6.2 13.8-12 0-3-1.8-6-3.5-6-.8 0-1.5-.5-1.5-1 0-.6.5-1 1-1 1.6 0 4.9-6.1 4.2-7.8-.4-1.2-.1-1.4 1.4-.8 3.9 1.6 5.8 1.5 8.4-.4 7.4-5.3 5.3-21-2.8-21-1.3 0-3.7 1.3-5.3 2.9zM185 260.9c0 .3 1.5 3.1 3.3 6.1 1.8 3 4.7 8 6.5 11.1l3.2 5.7h-6c-3.4 0-6.3.1-6.5.4-.2.2 2.5 5.3 5.9 11.3l6.4 11-6.4.3c-3.5.2-6.4.5-6.4.7 0 .3 8.3 14.8 10 17.5.6.8 1.4 2.5 2 3.7.5 1.3 1.3 2.3 1.8 2.3.4 0 3.8-5.3 7.5-11.8l6.7-11.7-6.4-.5-6.4-.5 6.4-11c7-12.2 6.9-12.6-1.3-11.7-2.9.3-4.3 0-4.3-.8 0-.6 2.5-5.6 5.6-11 3.1-5.4 5.6-10.2 5.5-10.7-.1-.9-27.1-1.3-27.1-.4zM25.4 266c-5.2 2.1-2.4 10.4 4.6 14.1 9.7 5.2 18.1-1.6 11.8-9.6-3.6-4.7-11-6.7-16.4-4.5zM366.8 267c-7.2 2.1-12.9 9-10.7 13.1 1.9 3.7 10 4.4 14.7 1.3 5.1-3.3 6.6-5.7 6.2-9.9-.4-4-4.8-6-10.2-4.5zM31.3 285.7c-6.5 3.1-9.9 9.8-6.9 13.6 4.3 5.6 19.6-1.2 19.6-8.7 0-5.4-6.6-7.9-12.7-4.9zM357.9 288.1c-5.8 5.8 4.2 16.2 14.2 14.7 1.3-.1 3-1.5 3.9-3 1.3-2.5 1.3-3-.3-6.1-3.6-6.7-13.6-9.8-17.8-5.6zM48.8 291.7c-.9.2-2.7 2-3.9 3.9-2.7 4.4-2.3 13.2.6 16.4 2.8 3.1 7.4 2.3 10.1-1.8 3.4-5 2.9-13.5-.9-16.8-1.6-1.3-3.1-2.3-3.5-2.3-.4.1-1.5.3-2.4.6zM345.1 295.4c-6.4 6.9-1.5 22.2 6.5 20.2 6.8-1.7 7.2-18 .5-21.6-3-1.5-4.5-1.2-7 1.4zM193.8 338.7c-2.6 2.8-3.8 6.9-3.3 11.2l.4 4-3.6-2.5c-3.9-2.6-4.3-2.7-8.7-2.4-6.9.5-9.9 6.3-6 11.8 2 2.9 8.5 6.2 12.2 6.2 4.3 0 8.2-3.5 8.2-7.2 0-2.6.2-2.9 1.5-1.8 1 .8 3.2 1.1 6 .8 4.2-.5 4.5-.4 4.5 1.8 0 3 4.4 6.4 8.4 6.4 3.5 0 9.2-3.1 11.8-6.3 2.6-3.3 2.3-8.1-.7-10.1-3.6-2.4-9.6-2-13.7.8l-3.5 2.3.1-5.3c.1-7.1-2.5-10.8-8.1-11.2-2.8-.2-4.4.2-5.5 1.5zM180.4 369.4c-4.1 1.8-8.2 6.3-9 9.9-1.3 6.2 6 9 13.8 5.3 3.4-1.6 7.8-7.8 7.8-10.8 0-4.4-7-6.9-12.6-4.4zM207.4 370.3c-3.3 2.9-2.9 6 1.6 11.1 6.9 7.8 19.6 5.8 17.4-2.8-.9-3.5-6.1-8.4-10.2-9.6-5.1-1.4-5.7-1.3-8.8 1.3zM195.6 377.1c-3.2 2.5-4.9 7.9-4.1 12.7.7 4.3 2.1 6.4 5.3 8.1 1.9 1 2.8 1 4.9-.4 7.1-4.7 6.7-18.8-.5-21.3-2.6-.9-3.5-.7-5.6.9z"/></svg>